<svg xmlns="http://www.w3.org/2000/svg" viewBox="0 0 64 64">
  <defs>
    <linearGradient id="g" x1="0" y1="0" x2="1" y2="1">
      <stop offset="0" stop-color="#7c3aed"/>
      <stop offset="1" stop-color="#22d3ee"/>
    </linearGradient>
  </defs>
  <circle cx="32" cy="32" r="30" fill="url(#g)"/>
  <g transform="translate(32,32)">
    <g>
      <path d="M0,-26 A26,26 0 0,1 18.4,-18.4 L0,0Z" fill="#ffffff"/>
      <path d="M18.4,-18.4 A26,26 0 0,1 26,0 L0,0Z" fill="#ef4444"/>
      <path d="M26,0 A26,26 0 0,1 18.4,18.4 L0,0Z" fill="#f59e0b"/>
      <path d="M18.4,18.4 A26,26 0 0,1 0,26 L0,0Z" fill="#10b981"/>
      <path d="M0,26 A26,26 0 0,1 -18.4,18.4 L0,0Z" fill="#3b82f6"/>
      <path d="M-18.4,18.4 A26,26 0 0,1 -26,0 L0,0Z" fill="#8b5cf6"/>
      <path d="M-26,0 A26,26 0 0,1 -18.4,-18.4 L0,0Z" fill="#f472b6"/>
      <path d="M-18.4,-18.4 A26,26 0 0,1 0,-26 L0,0Z" fill="#22d3ee"/>
    </g>
    <circle r="5" fill="#111827"/>
  </g>
</svg>